<?xml version="1.0" encoding="UTF-8"?>
<svg version="1.1" xmlns="http://www.w3.org/2000/svg" width="1024" height="1024">
<path d="M0 0 C337.92 0 675.84 0 1024 0 C1024 337.92 1024 675.84 1024 1024 C686.08 1024 348.16 1024 0 1024 C0 686.08 0 348.16 0 0 Z " fill="#FDFDFD" transform="translate(0,0)"/>
<path d="M0 0 C1.46425919 -0.00151062 1.46425919 -0.00151062 2.95809937 -0.00305176 C28.64907537 0.01470993 53.76164197 2.09745259 79.04296875 6.79882812 C81.32704732 7.20783754 83.60909141 7.56459043 85.90625 7.890625 C99.35677323 9.8317263 112.45442056 13.33046158 125.59716797 16.72171021 C128.99066983 17.59672218 132.38689778 18.45669694 135.79101562 19.28955078 C142.88919309 21.02793136 149.90870379 22.83367133 156.8125 25.25 C158.2134997 25.72928937 159.6145423 26.20845334 161.015625 26.6875 C161.73435791 26.93628906 162.45309082 27.18507812 163.19360352 27.44140625 C165.88565816 28.36030607 168.58943259 29.24047277 171.29296875 30.125 C213.60875068 44.21913837 275.3880863 66.0755863 307.5625 98.25 C307.82128906 100.38769531 307.82128906 100.38769531 307.828125 103.078125 C307.83223389 104.0899585 307.83634277 105.10179199 307.84057617 106.14428711 C307.83131104 107.25167236 307.8220459 108.35905762 307.8125 109.5 C307.80645752 110.65443604 307.80041504 111.80887207 307.79418945 112.99829102 C307.47607524 141.79244745 304.96000267 170.94449183 299.5625 199.25 C299.25505859 200.87131836 299.25505859 200.87131836 298.94140625 202.52539062 C294.30369601 226.77511282 288.97123517 250.69032514 281.5625 274.25 C281.1360696 275.62479882 280.71026299 276.99979131 280.28515625 278.375 C279.4788426 280.97767419 278.66466822 283.57767808 277.84375 286.17578125 C276.91172888 289.12693874 275.9990902 292.08352009 275.09375 295.04296875 C274.58339282 296.69533087 274.07297708 298.34767491 273.5625 300 C273.33755859 300.74386963 273.11261719 301.48773926 272.88085938 302.25415039 C271.1861436 307.70528724 269.08600238 312.92144206 266.85644531 318.17480469 C265.61848941 321.11693536 264.43541436 324.07402512 263.2734375 327.046875 C257.90595345 340.74841508 252.11592498 354.17788974 245.85449219 367.49414062 C244.65257466 370.05786797 243.46801803 372.62877726 242.2890625 375.203125 C238.30893398 383.83507338 234.03758918 392.27195409 229.5 400.625 C228.79435913 401.9255835 228.79435913 401.9255835 228.07446289 403.25244141 C227.11808535 404.98984691 226.13751711 406.71413221 225.13452148 408.42504883 C223.46720079 411.31559552 223.46720079 411.31559552 222.02368164 414.76831055 C220.1819211 418.55170011 218.57652982 421.30223392 215.5625 424.25 C209.69417657 425.98646967 204.18066852 425.68000634 198.125 425.3125 C196.4565804 425.25498802 194.78803351 425.20106236 193.11938477 425.15063477 C152.24398673 423.64880993 118.62075705 411.03619459 90.19140625 381.25390625 C85.01180625 375.64435243 80.55491191 369.75362676 76.5625 363.25 C76.1804541 362.63141113 75.7984082 362.01282227 75.40478516 361.37548828 C70.15250787 352.66712899 66.38640437 343.62241629 63.125 334 C62.79483887 333.03078613 62.46467773 332.06157227 62.12451172 331.06298828 C55.35102425 310.07616498 53.74760992 282.25579515 61.5625 261.25 C61.83094727 260.52603027 62.09939453 259.80206055 62.37597656 259.05615234 C70.47312039 237.9883346 83.9987537 220.40186991 101.5625 206.25 C102.5525 205.92 103.5425 205.59 104.5625 205.25 C102.75476299 210.95132442 100.4000599 216.34036344 98 221.8125 C89.09028234 243.11834658 89.51840647 266.09402938 98.24780273 287.40527344 C109.9256365 313.9983039 131.37402949 333.35827458 157.9375 344.5625 C176.82209464 351.6143423 196.51230735 354.79194444 216.5625 356.25 C216.73265625 355.70182617 216.9028125 355.15365234 217.078125 354.58886719 C218.86577198 349.00960196 221.06711758 343.79316805 223.5625 338.5 C248.63556171 283.85665313 263.23454166 224.87622121 269.5625 165.25 C269.69382324 164.02410156 269.82514648 162.79820312 269.96044922 161.53515625 C270.58803573 155.44413425 271.05544034 149.36912433 271.36328125 143.25390625 C271.58276492 139.94443679 271.96540701 136.6698899 272.34375 133.375 C273.70396259 122.21712479 273.70396259 122.21712479 269.94677734 112.09570312 C265.5382767 108.17935792 260.45001709 105.73948765 255.08398438 103.38671875 C252.13755812 102.05843054 249.43529386 100.47555649 246.67480469 98.80371094 C221.84822222 83.92338385 193.85717498 72.68306478 166.5625 63.25 C165.60714355 62.91436035 164.65178711 62.5787207 163.66748047 62.23291016 C137.48457297 53.06663078 110.90856901 45.46201017 83.54785156 40.77197266 C80.68811869 40.27196375 77.84098434 39.72652668 74.9921875 39.16796875 C15.51120697 27.87226418 -46.82516189 31.98771408 -105.625 44.875 C-106.51216705 45.06877228 -107.39933411 45.26254456 -108.31338501 45.46218872 C-110.85031121 46.02070292 -113.38458351 46.58971907 -115.91796875 47.1640625 C-116.66235199 47.32959122 -117.40673523 47.49511993 -118.17367554 47.66566467 C-123.11895147 48.81007454 -127.70662667 50.40940286 -132.4375 52.25 C-135.04859801 53.07204196 -137.67803931 53.81920461 -140.3125 54.5625 C-152.05572786 57.95190664 -163.78497618 61.5820874 -175.078125 66.28125 C-177.69691384 67.35651429 -180.34528964 68.32927394 -183 69.3125 C-209.75806757 79.60165142 -235.81249829 92.12350391 -260.54101562 106.60009766 C-263.58092288 108.33169688 -266.66345046 109.95711766 -269.765625 111.57421875 C-271.80217952 112.67430112 -273.83864094 113.77455586 -275.875 114.875 C-276.83559326 115.35251709 -277.79618652 115.83003418 -278.78588867 116.32202148 C-283.5194794 118.86840997 -283.5194794 118.86840997 -286.08544922 123.34960938 C-286.15797745 126.38260822 -285.81423651 129.23735196 -285.4375 132.25 C-285.31349796 133.79511183 -285.1982295 135.34093842 -285.08959961 136.88720703 C-284.69096691 142.43145433 -284.19777398 147.96503351 -283.6875 153.5 C-283.59691315 154.48852966 -283.50632629 155.47705933 -283.41299438 156.49554443 C-282.17737003 169.83585379 -280.80199444 183.04892 -278.07080078 196.17919922 C-277.44583522 199.20958349 -276.85242162 202.24528898 -276.2645874 205.2830658 C-273.2450982 220.84879516 -270.04659207 236.24049892 -265.06787109 251.3203125 C-264.1758565 254.05094122 -263.37551701 256.80747293 -262.5625 259.5625 C-258.96208419 271.23333939 -255.03600327 282.93216477 -250.4375 294.25 C-250.12635254 293.67258057 -249.81520508 293.09516113 -249.49462891 292.50024414 C-232.9259526 261.80411117 -215.1599745 233.01504405 -191.4375 207.25 C-190.89899414 206.66105957 -190.36048828 206.07211914 -189.80566406 205.46533203 C-183.30440072 198.36209986 -176.88863453 191.37307115 -169.4375 185.25 C-168.53386719 184.45851563 -167.63023437 183.66703125 -166.69921875 182.8515625 C-152.72455349 170.64075497 -137.65783121 160.23856904 -121.4375 151.25 C-120.71546387 150.84185059 -119.99342773 150.43370117 -119.24951172 150.01318359 C-90.59514405 133.87581942 -60.71135896 125.44903854 -28.4375 120.25 C-27.29925781 120.05019531 -26.16101563 119.85039062 -24.98828125 119.64453125 C-19.16566343 118.99757371 -13.35429315 118.85948288 -7.5 118.75 C-6.26314453 118.69585937 -5.02628906 118.64171875 -3.75195312 118.5859375 C2.35653577 118.49452238 6.49281486 118.46180345 11.17578125 122.66015625 C11.74208252 123.282854 12.30838379 123.90555176 12.8918457 124.54711914 C17.08665165 128.822842 23.39482308 129.47226236 29.125 129.9375 C37.52093865 129.77541624 44.4242439 125.25321119 51.5625 121.25 C52.89075118 120.57326443 54.22105492 119.90019022 55.5625 119.25 C55.5625 118.59 55.5625 117.93 55.5625 117.25 C54.83933594 117.12367188 54.11617187 116.99734375 53.37109375 116.8671875 C50.63079455 116.2650077 48.23711047 115.3884203 45.625 114.375 C10.23022088 102.7185463 -35.67696337 107.36121711 -70.4375 119.25 C-72.32917656 119.79132264 -74.22087531 120.33257967 -76.11376953 120.86962891 C-96.9395418 126.93837688 -118.62259375 136.83442514 -136.4375 149.25 C-137.0975 148.92 -137.7575 148.59 -138.4375 148.25 C-93.34696015 114.18034892 -40.58538454 85.14762685 17.5703125 85.08203125 C18.61339569 85.07870285 19.65647888 85.07537445 20.73117065 85.07194519 C22.93145307 85.0669022 25.13174306 85.06453605 27.33203125 85.06469727 C30.65638214 85.06252038 33.98039559 85.04436264 37.3046875 85.02539062 C51.347581 84.98696985 64.785435 85.37214103 78.3125 89.5625 C79.03002441 89.78196289 79.74754883 90.00142578 80.48681641 90.22753906 C93.95226158 94.47978491 105.46650704 101.4454602 112.63671875 113.98828125 C113.5625 116.25 113.5625 116.25 113.5625 120.25 C114.14515625 120.26417969 114.7278125 120.27835937 115.328125 120.29296875 C128.00364553 121.03038111 138.61316249 126.69189307 147.08203125 136.02734375 C149.69382648 139.23789441 151.52876721 142.65555718 153.3125 146.375 C153.61542969 146.98214844 153.91835938 147.58929688 154.23046875 148.21484375 C159.61364773 159.19652887 159.48588927 175.05241288 155.6171875 186.56640625 C155.26914062 187.45199219 154.92109375 188.33757812 154.5625 189.25 C154.33723633 189.84538574 154.11197266 190.44077148 153.87988281 191.05419922 C151.40129977 197.60057442 148.76822996 204.01981648 145.5625 210.25 C145.2325 210.25 144.9025 210.25 144.5625 210.25 C144.41554688 209.36699219 144.26859375 208.48398437 144.1171875 207.57421875 C141.97652345 196.12043584 138.22285006 185.46569005 128.5625 178.25 C115.71843506 170.87741399 101.65950546 170.83726707 87.5625 174.25 C59.4193697 182.09012091 35.21434955 198.26760282 14.00390625 217.99609375 C11.92198771 219.91812095 9.79824103 221.74625955 7.625 223.5625 C1.79307674 228.6476526 -3.28322117 234.49605872 -8.4375 240.25 C-8.96537109 240.83313965 -9.49324219 241.4162793 -10.03710938 242.01708984 C-39.64523825 274.8078221 -61.36499667 314.17570441 -71.0625 357.375 C-71.25674561 358.22553955 -71.45099121 359.0760791 -71.65112305 359.95239258 C-75.57727236 378.24055267 -76.96254255 396.33095063 -76.8125 415 C-76.80751495 416.05126068 -76.80252991 417.10252136 -76.7973938 418.18563843 C-76.70935733 434.06124652 -76.23814704 449.58720784 -73.4375 465.25 C-73.32579468 465.88476257 -73.21408936 466.51952515 -73.09899902 467.17352295 C-64.72832793 514.58519611 -50.52316909 560.09938599 -30.34130859 603.81176758 C-28.15187763 608.56003753 -26.21935745 613.33318709 -24.4375 618.25 C-27.94581269 616.95271769 -30.92280679 615.42456516 -34.02734375 613.34375 C-35.31644653 612.48330078 -35.31644653 612.48330078 -36.6315918 611.60546875 C-37.98957886 610.68701172 -37.98957886 610.68701172 -39.375 609.75 C-40.31577393 609.11707031 -41.25654785 608.48414063 -42.22583008 607.83203125 C-77.55244447 583.9805946 -109.36365412 556.37675607 -139.5 526.3125 C-140.45510468 525.36141357 -140.45510468 525.36141357 -141.42950439 524.39111328 C-147.98467088 517.85686822 -154.48056406 511.34304733 -160.4375 504.25 C-161.40986088 503.13142186 -162.38379385 502.01420816 -163.359375 500.8984375 C-169.32455428 494.01081854 -175.07779443 486.99851115 -180.6640625 479.80078125 C-182.52854185 477.40104151 -184.41901688 475.0260244 -186.3359375 472.66796875 C-197.88035798 458.46106159 -208.47989157 443.60673558 -218.4375 428.25 C-219.22809814 427.03618652 -219.22809814 427.03618652 -220.03466797 425.79785156 C-228.65044706 412.53864688 -236.760827 399.07247747 -244.4375 385.25 C-244.95666992 384.32525879 -245.47583984 383.40051758 -246.01074219 382.44775391 C-289.20581875 305.39246383 -319.65975872 211.60368518 -321.4375 101.25 C-320.65890625 100.81171875 -319.8803125 100.3734375 -319.078125 99.921875 C-312.86961164 96.40276374 -306.71272675 92.82367464 -300.62060547 89.10620117 C-252.68156892 59.92236264 -199.9551747 35.88828813 -145.62109375 21.390625 C-142.90635046 20.6633612 -140.21695737 19.88742945 -137.53515625 19.046875 C-125.12237597 15.16951726 -112.47861419 12.52648943 -99.74365234 9.93017578 C-96.91376581 9.34798232 -94.09132066 8.74097698 -91.26953125 8.12109375 C-79.82997268 5.68540942 -68.30403748 4.32255486 -56.6875 3.0625 C-55.90980255 2.97764343 -55.1321051 2.89278687 -54.33084106 2.80535889 C-36.21398705 0.85178456 -18.22156537 0.01319574 0 0 Z " fill="#0E68AC" transform="translate(518.4375,200.75)"/>
<path d="M0 0 C1.2510953 3.59349201 0.74010139 6.07660752 -0.14453125 9.734375 C-0.40943359 10.86746094 -0.67433594 12.00054687 -0.94726562 13.16796875 C-1.23279297 14.35003906 -1.51832031 15.53210938 -1.8125 16.75 C-5.54564957 32.22719894 -7.4195699 47.07746129 -7.375 63 C-7.37478851 63.70833984 -7.37457703 64.41667969 -7.37435913 65.14648438 C-7.24051208 110.49462602 10.66119395 149.84625318 41 183 C44.20796324 186.16388435 47.53995729 189.1157084 51 192 C51.75410156 192.64066406 52.50820313 193.28132812 53.28515625 193.94140625 C76.32822054 212.9836714 103.17960503 227.052431 132 235 C130.38407546 238.92305381 127.68784321 241.71513166 124.8125 244.75 C121.68183738 248.08819597 118.59206133 251.44747766 115.58984375 254.90234375 C112.0616226 258.95431917 108.42968693 262.89803194 104.75 266.8125 C104.0995874 267.504646 103.4491748 268.19679199 102.77905273 268.90991211 C95.55691874 276.56706093 88.29933088 284.16491466 80.28125 291 C77.80732751 293.16891835 75.41116879 295.40827129 73.01342773 297.66064453 C66.55029412 303.72885208 59.92887512 309.46418387 53 315 C51.72659896 316.04011911 50.45455588 317.0819021 49.18359375 318.125 C35.87766635 329.03512771 22.09440509 339.1374325 8 349 C4.07767249 347.51716887 2.819659 345.51674426 0.828125 341.8984375 C0.25006104 340.85864746 -0.32800293 339.81885742 -0.92358398 338.74755859 C-1.52630127 337.63461426 -2.12901855 336.52166992 -2.75 335.375 C-3.37398682 334.2401416 -3.99797363 333.1052832 -4.64086914 331.93603516 C-9.31274334 323.39127134 -13.7882393 314.7793094 -18 306 C-18.54398438 304.91589844 -19.08796875 303.83179688 -19.6484375 302.71484375 C-26.07870006 289.56752288 -30.94783477 275.71971879 -36 262 C-36.43078857 260.85426514 -36.86157715 259.70853027 -37.30541992 258.52807617 C-40.47103227 249.95386166 -42.9064225 241.30478954 -45.0625 232.4375 C-45.23397552 231.73868713 -45.40545105 231.03987427 -45.5821228 230.31988525 C-57.32318924 182.38701728 -61.54906555 132.05089771 -48 84 C-47.79036621 83.25266602 -47.58073242 82.50533203 -47.36474609 81.73535156 C-41.50343066 61.43958804 -32.26575261 42.17766727 -20 25 C-19.23945312 23.9275 -18.47890625 22.855 -17.6953125 21.75 C-12.16562627 14.1934181 -6.11357117 7.08488621 0 0 Z " fill="#F68326" transform="translate(553,463)"/>
<path d="M0 0 C0.109375 2.640625 0.109375 2.640625 -1 6 C-3.99738414 8.38605501 -7.33838291 10.02989697 -10.75 11.75 C-11.6575 12.23082031 -12.565 12.71164062 -13.5 13.20703125 C-17.6019844 15.35997335 -21.6768094 17.32718835 -26 19 C-22.39383718 15.10271466 -18.25379523 12.07775644 -14 8.9375 C-13.2884375 8.40833984 -12.576875 7.87917969 -11.84375 7.33398438 C-10.4836667 6.32280304 -9.12178469 5.31403496 -7.7578125 4.30810547 C-6.36347589 3.27048664 -4.99025905 2.20449685 -3.625 1.12890625 C-2 0 -2 0 0 0 Z " fill="#1B85C5" transform="translate(406,331)"/>
<path d="M0 0 C5.47733506 1.83280058 9.82929693 5.2052669 14.47265625 8.54296875 C19.25325955 11.86073163 19.25325955 11.86073163 25 12 C25.66 13.98 26.32 15.96 27 18 C23.31560165 16.64943824 20.21798328 14.98327682 16.953125 12.8125 C16.02628906 12.19632813 15.09945313 11.58015625 14.14453125 10.9453125 C13.18933594 10.30335938 12.23414063 9.66140625 11.25 9 C10.27933594 8.35804688 9.30867188 7.71609375 8.30859375 7.0546875 C7.38691406 6.43851563 6.46523438 5.82234375 5.515625 5.1875 C4.67290039 4.62417969 3.83017578 4.06085937 2.96191406 3.48046875 C1 2 1 2 0 0 Z " fill="#224A82" transform="translate(467,801)"/>
<path d="M0 0 C0.99 0.33 1.98 0.66 3 1 C-0.63 4.63 -4.26 8.26 -8 12 C-8.33 11.01 -8.66 10.02 -9 9 C-6.03 6.03 -3.06 3.06 0 0 Z " fill="#237BB9" transform="translate(341,393)"/>
<path d="M0 0 C2 1 2 1 3 3 C1.27281484 3.96189997 -0.45684058 4.91936508 -2.1875 5.875 C-3.15042969 6.40867187 -4.11335938 6.94234375 -5.10546875 7.4921875 C-7.69739518 8.8423678 -10.26761098 9.97098329 -13 11 C-10.24881027 8.14784917 -7.39684775 5.65641299 -4.25 3.25 C-3.45078125 2.63640625 -2.6515625 2.0228125 -1.828125 1.390625 C-1.22484375 0.93171875 -0.6215625 0.4728125 0 0 Z " fill="#3D97D1" transform="translate(393,339)"/>
<path d="M0 0 C0.33 0.66 0.66 1.32 1 2 C0.3125 4.0625 0.3125 4.0625 -1 6 C-2.32488113 6.36548445 -3.66018514 6.6937566 -5 7 C-6.7074998 8.28062485 -8.38263741 9.6072711 -10 11 C-10.66 10.67 -11.32 10.34 -12 10 C-10.37744772 8.51814875 -8.75188112 7.03959744 -7.125 5.5625 C-6.22007812 4.73878906 -5.31515625 3.91507812 -4.3828125 3.06640625 C-2 1 -2 1 0 0 Z " fill="#257DB9" transform="translate(622,406)"/>
<path d="M0 0 C0.625 1.8125 0.625 1.8125 1 4 C-1.09164407 7.13746611 -1.78160278 7.48546013 -5 9 C-6.35113205 9.97581759 -7.68946944 10.97029741 -9 12 C-7.55575365 8.76138697 -5.74227753 6.38030837 -3.375 3.75 C-2.74335937 3.04359375 -2.11171875 2.3371875 -1.4609375 1.609375 C-0.97882812 1.07828125 -0.49671875 0.5471875 0 0 Z " fill="#FAD734" transform="translate(553,463)"/>
</svg>
